<svg width="572" height="354" viewBox="0 0 572 354" fill="none" xmlns="http://www.w3.org/2000/svg">
<path d="M569.852 288.205C569.087 287.601 568.16 287.299 567.073 287.299C565.986 287.299 565.079 287.601 564.294 288.205C563.509 288.808 563.106 289.633 563.106 290.659C563.106 291.684 563.509 292.529 564.294 293.133C565.079 293.736 566.006 294.038 567.073 294.038C568.14 294.038 569.067 293.736 569.852 293.133C570.638 292.529 571.02 291.705 571.02 290.659C571.02 289.613 570.638 288.808 569.852 288.205ZM564.173 338.673H569.913V302.365H564.173V338.673ZM545.384 303.431C543.29 302.365 540.833 301.822 538.034 301.822C535.234 301.822 532.717 302.506 530.381 303.894C528.669 304.92 527.199 306.187 525.991 307.716V302.385H520.171V338.693H525.991V318.497C525.991 316.426 526.494 314.555 527.481 312.885C528.468 311.216 529.797 309.868 531.448 308.883C533.1 307.897 534.892 307.394 536.845 307.394C539.061 307.394 540.853 307.776 542.222 308.561C543.592 309.345 544.599 310.431 545.243 311.839C545.888 313.247 546.21 314.897 546.21 316.788V338.693H552.03V315.239C552.03 312.443 551.446 310.029 550.298 308.038C549.15 306.046 547.519 304.518 545.424 303.431M501.906 327.609C500.818 329.641 499.328 331.21 497.415 332.336C495.502 333.443 493.286 334.006 490.769 334.006C488.252 334.006 486.077 333.443 484.144 332.336C482.21 331.23 480.7 329.641 479.633 327.609C478.545 325.578 478.002 323.204 478.002 320.509C478.002 317.814 478.545 315.44 479.633 313.449C480.72 311.457 482.231 309.908 484.144 308.842C486.077 307.756 488.272 307.213 490.769 307.213C493.266 307.213 495.502 307.756 497.415 308.842C499.328 309.928 500.838 311.457 501.906 313.449C502.993 315.44 503.537 317.793 503.537 320.509C503.537 323.224 502.993 325.598 501.906 327.609ZM500.436 304.256C497.636 302.667 494.414 301.863 490.769 301.863C487.124 301.863 483.902 302.667 481.103 304.256C478.304 305.845 476.109 308.058 474.538 310.854C472.947 313.65 472.161 316.868 472.161 320.489C472.161 324.109 472.947 327.348 474.538 330.184C476.129 333.02 478.304 335.253 481.103 336.882C483.902 338.512 487.124 339.336 490.769 339.336C494.414 339.336 497.636 338.512 500.436 336.882C503.235 335.253 505.41 333.02 507.001 330.184C508.592 327.348 509.377 324.109 509.377 320.489C509.377 316.868 508.592 313.65 507.001 310.854C505.41 308.058 503.215 305.845 500.436 304.256ZM458.326 306.268C456.897 304.92 455.124 303.854 453.05 303.049C450.976 302.245 448.62 301.842 445.962 301.842C442.498 301.842 439.336 302.587 436.517 304.075C433.677 305.564 431.442 307.696 429.791 310.492C428.139 313.288 427.314 316.627 427.314 320.529C427.314 324.431 428.139 327.79 429.791 330.607C431.442 333.443 433.677 335.595 436.517 337.124C439.336 338.632 442.498 339.397 445.962 339.397C448.7 339.397 451.117 338.994 453.191 338.21C455.286 337.405 457.038 336.339 458.447 335.012C459.857 333.684 460.924 332.196 461.669 330.566C462.394 328.937 462.757 327.308 462.757 325.658H456.977C456.897 327.147 456.433 328.515 455.628 329.822C454.822 331.109 453.614 332.135 452.023 332.92C450.432 333.704 448.398 334.086 445.921 334.086C443.646 334.086 441.531 333.583 439.598 332.558C437.665 331.552 436.134 330.023 434.966 328.032C433.798 326.02 433.214 323.526 433.214 320.549C433.214 317.572 433.798 315.058 434.986 313.087C436.154 311.115 437.705 309.647 439.638 308.681C441.571 307.716 443.666 307.233 445.921 307.233C447.935 307.233 449.727 307.555 451.298 308.219C452.869 308.883 454.158 309.788 455.124 310.934C456.111 312.081 456.675 313.428 456.876 314.957C456.897 315.118 456.917 315.279 456.937 315.42C456.957 315.561 456.977 315.701 456.977 315.822H462.757V315.581C462.757 313.992 462.374 312.383 461.609 310.773C460.844 309.164 459.736 307.696 458.306 306.348M410.619 338.673H416.358V285.248H410.619V338.673ZM391.206 329.862C390.098 331.27 388.588 332.336 386.695 333.061C384.802 333.785 382.687 334.147 380.331 334.147C377.33 334.147 375.095 333.644 373.665 332.618C372.235 331.612 371.51 330.104 371.51 328.112C371.51 326.02 372.376 324.532 374.128 323.627C375.88 322.742 378.458 322.138 381.922 321.816C384.298 321.595 386.574 321.293 388.749 320.951C390.32 320.69 391.709 320.388 392.917 320.006V324.592C392.917 326.684 392.354 328.454 391.246 329.862M399.18 336.158C399.019 335.595 398.898 334.931 398.838 334.167C398.778 333.423 398.737 332.638 398.737 331.834V313.71C398.737 311.115 398.033 308.923 396.643 307.173C395.233 305.403 393.34 304.075 390.964 303.17C388.588 302.265 385.909 301.822 382.949 301.822C379.707 301.822 376.847 302.325 374.37 303.331C371.893 304.337 369.96 305.785 368.57 307.696C367.181 309.607 366.476 311.9 366.476 314.615H372.235C372.235 312 373.162 310.089 375.035 308.923C376.908 307.756 379.525 307.153 382.909 307.153C386.292 307.153 388.628 307.676 390.34 308.702C392.051 309.747 392.917 311.296 392.917 313.408V313.509C392.917 314.515 391.971 315.239 390.078 315.681C388.185 316.124 385.003 316.587 380.532 317.029C377.572 317.331 374.954 317.914 372.739 318.799C370.504 319.684 368.772 320.931 367.543 322.5C366.315 324.089 365.691 326.061 365.691 328.434C365.691 330.808 366.254 332.658 367.402 334.288C368.55 335.917 370.141 337.164 372.215 338.029C374.269 338.894 376.686 339.336 379.445 339.336C381.862 339.336 384.036 339.075 385.95 338.552C387.863 338.029 389.494 337.305 390.863 336.359C391.749 335.736 392.495 335.052 393.099 334.308C393.099 334.408 393.099 334.529 393.139 334.629C393.22 335.333 393.36 335.897 393.522 336.359C393.723 336.923 393.944 337.425 394.166 337.848C394.388 338.27 394.569 338.532 394.69 338.652H400.55C400.389 338.492 400.187 338.21 399.926 337.787C399.684 337.365 399.442 336.822 399.241 336.138M332.18 338.673H338V316.385H356.548V311.256H338V293.374H359.589V288.245H332.18V338.673ZM289.326 332.357L279.68 302.365H273.578L286.104 338.874L285.017 342.092C284.594 343.4 284.03 344.566 283.345 345.592C282.66 346.638 281.815 347.443 280.808 348.046C279.801 348.649 278.572 348.951 277.102 348.951C276.418 348.951 275.733 348.911 275.048 348.81C274.364 348.71 273.88 348.609 273.578 348.468V353.537C273.759 353.638 274.223 353.718 274.988 353.839C275.733 353.94 276.579 354 277.485 354C280.385 354 282.721 353.437 284.473 352.33C286.245 351.204 287.655 349.736 288.722 347.885C289.789 346.035 290.696 344.003 291.441 341.79L304.752 302.385H298.751L289.306 332.377L289.326 332.357ZM258.656 330.566C256.521 332.759 253.843 333.865 250.641 333.865C248.707 333.865 246.895 333.382 245.203 332.437C243.512 331.471 242.142 330.184 241.115 328.575C240.068 326.966 239.565 325.176 239.565 323.204V317.773C239.565 315.802 240.088 313.992 241.115 312.403C242.162 310.814 243.512 309.546 245.203 308.581C246.895 307.635 248.707 307.153 250.641 307.153C253.883 307.153 256.561 308.239 258.676 310.411C260.79 312.584 261.858 315.943 261.858 320.489C261.858 325.035 260.79 328.354 258.656 330.546M259.602 303.995C257.125 302.546 254.407 301.822 251.466 301.822C248.526 301.822 246.029 302.486 243.592 303.814C242.062 304.658 240.733 305.725 239.544 306.972V285.228H233.684V338.652H239.544V334.026C240.713 335.313 242.042 336.4 243.592 337.264C246.029 338.652 248.647 339.336 251.466 339.336C254.447 339.336 257.186 338.612 259.683 337.164C262.16 335.716 264.153 333.583 265.644 330.767C267.134 327.951 267.859 324.512 267.859 320.469C267.859 316.426 267.114 313.107 265.603 310.311C264.093 307.535 262.099 305.423 259.622 303.975M212.801 0C175.022 0 146.465 26.6923 141.25 66.5598L127.737 172.685C126.508 182.501 126.508 191.694 120.366 191.694C114.848 191.694 113.922 184.955 112.371 173.289L100.389 78.8097C94.8713 35.2612 78.9017 15.9309 49.1172 15.9309C17.5001 15.951 0 38.3388 0 76.3758V234.035H31.9393V73.6201C31.9393 58.5943 37.7794 51.2323 48.5131 51.2323C57.1121 51.2323 62.0258 57.9708 63.8584 71.4879L77.3712 176.99C81.6606 211.044 93.0387 235.886 123.75 235.886C158.75 235.886 167.671 208.289 171.961 175.763L182.714 91.7234C186.702 60.4449 195.301 49.7036 211.572 49.7036C226.314 49.7036 233.684 61.0484 233.684 80.0769V234.056H284.956V82.8125C284.956 32.8072 257.004 0 212.801 0ZM371.269 0.603443H319.07V50.6088H371.269V0.603443ZM518.661 75.4505C508.833 68.3902 495.622 64.4075 480.881 64.4075C434.201 64.4075 397.972 101.821 397.972 149.976C397.972 198.131 433.899 235.866 479.955 235.866C498.079 235.866 512.196 230.033 520.493 221.765V234.035H569.933V0.603443H518.661V75.4505ZM370.645 66.8615H319.675V234.035H370.645V66.8615ZM483.962 185.579C464.61 185.579 449.264 169.93 449.264 149.996C449.264 130.062 464.61 114.715 483.962 114.715C503.315 114.715 518.661 130.042 518.661 149.996C518.661 169.95 503.315 185.579 483.962 185.579Z" fill="white"/>
</svg>
